<?xml version="1.0" encoding="UTF-8" standalone="no"?>
<!-- Created with Inkscape (http://www.inkscape.org/) -->

<svg
   xmlns:dc="http://purl.org/dc/elements/1.1/"
   xmlns:cc="http://creativecommons.org/ns#"
   xmlns:rdf="http://www.w3.org/1999/02/22-rdf-syntax-ns#"
   xmlns:svg="http://www.w3.org/2000/svg"
   xmlns="http://www.w3.org/2000/svg"
   xmlns:sodipodi="http://sodipodi.sourceforge.net/DTD/sodipodi-0.dtd"
   xmlns:inkscape="http://www.inkscape.org/namespaces/inkscape"
   id="svg3039"
   version="1.1"
   inkscape:version="0.48.4 r9939"
   width="500"
   height="500"
   sodipodi:docname="CS-logo.png">
  <metadata
     id="metadata3045">
    <rdf:RDF>
      <cc:Work
         rdf:about="">
        <dc:format>image/svg+xml</dc:format>
        <dc:type
           rdf:resource="http://purl.org/dc/dcmitype/StillImage" />
        <dc:title></dc:title>
      </cc:Work>
    </rdf:RDF>
  </metadata>
  <defs
     id="defs3043" />
  <sodipodi:namedview
     pagecolor="#ffffff"
     bordercolor="#666666"
     borderopacity="1"
     objecttolerance="10"
     gridtolerance="10"
     guidetolerance="10"
     inkscape:pageopacity="0"
     inkscape:pageshadow="2"
     inkscape:window-width="1920"
     inkscape:window-height="991"
     id="namedview3041"
     showgrid="false"
     inkscape:zoom="1.92"
     inkscape:cx="581.63585"
     inkscape:cy="238.92342"
     inkscape:window-x="0"
     inkscape:window-y="32"
     inkscape:window-maximized="1"
     inkscape:current-layer="svg3039" />
  <g
     id="g3049"
     transform="translate(407.29167,2.6041667)">
    <path
       style="fill:#d5e5f2"
       d="m 125,337.5 0,-64.5 -36.75,-0.016 -36.75,-0.016 46,-45.78269 c 57.39134,-57.12022 79.66926,-77.29302 113,-102.32222 C 226.11729,113.13559 248.3729,98 250,98 c 1.6271,0 23.88271,15.13559 39.5,26.86314 33.33074,25.0292 55.60866,45.202 113,102.32222 l 46,45.78269 -36.75,0.016 L 375,273 l 0,64.5 0,64.5 -125,0 -125,0 0,-64.5 z"
       id="path3063"
       inkscape:connector-curvature="0" />
    <path
       style="fill:#aecfe7"
       d="M 125,337.51247 125,273.02495 88.75,272.76247 52.5,272.5 97.00278,228 C 153.21804,171.78825 176.48595,150.6735 209.91064,125.5404 223.49006,115.32959 248.71599,98 250,98 c 1.28401,0 26.50994,17.32959 40.08936,27.5404 33.42469,25.1331 56.6926,46.24785 112.90786,102.4596 l 44.50278,44.5 -36.25,0.26247 -36.25,0.26248 0,64.48752 0,64.48753 -125,0 -125,0 0,-64.48753 z M 295.60679,353.25 C 294.31317,348.96232 274,265.58282 274,264.56056 c 0,-0.62868 4.94506,-8.97311 10.98901,-18.54316 l 10.98902,-17.4001 -6.23902,-3.35385 c -3.43145,-1.84462 -13.7626,-7.21896 -22.9581,-11.94297 l -16.7191,-8.58912 -14.98979,7.6661 c -8.24439,4.21635 -18.60016,9.59515 -23.01283,11.95289 l -8.02303,4.2868 10.98192,17.34615 C 221.05814,255.52368 226,263.87008 226,264.53085 c 0,1.08842 -20.32471,84.58226 -21.5967,88.71915 -0.50707,1.64915 2.1205,1.75 45.5967,1.75 43.47235,0 46.10431,-0.10099 45.60679,-1.75 z m -81.6117,-5.5 c -0.003,-0.6875 3.86574,-19.7 8.59653,-42.25 l 8.60144,-41 -8.59653,-15.91619 C 217.86844,239.82991 214,232.40251 214,232.07848 c 0,-0.32404 8.1,-5.49697 18,-11.49542 l 18,-10.90626 18,10.90626 c 9.9,5.99845 18,11.17138 18,11.49542 0,0.32403 -3.86888,7.75143 -8.59752,16.50533 l -8.59751,15.91619 8.59751,41.00072 C 282.13112,328.05111 286,347.06361 286,347.75072 286,348.72663 278.1223,349 250,349 c -28.13072,0 -36.00107,-0.27324 -36.00491,-1.25 z"
       id="path3061"
       inkscape:connector-curvature="0" />
    <path
       style="fill:#94b8cf"
       d="M 125,337.51247 125,273.02495 88.75,272.76247 52.5,272.5 95,229.94597 c 66.10816,-66.1922 99.97976,-95.69132 141.75,-123.45151 l 13.25,-8.805858 13.25,8.805858 c 41.77024,27.76019 75.64184,57.25931 141.75,123.45151 l 42.5,42.55403 -36.25,0.26247 -36.25,0.26248 0,64.48752 0,64.48753 -125,0 -125,0 0,-64.48753 z M 354.24265,322.75 354.5,258.5 383.86203,258 413.22406,257.5 386.86203,234.43236 C 325.30587,180.5687 298.35856,160.03179 259.75,137.55859 l -9.75,-5.67526 -9.75,5.67526 c -38.60856,22.4732 -65.55587,43.01011 -127.11203,96.87377 L 86.775943,257.5 116.13797,258 145.5,258.5 145.75735,322.75 146.0147,387 250,387 l 103.9853,0 0.25735,-64.25 z M 214,347.55852 c 0,-0.24282 3.825,-18.67982 8.5,-40.97112 4.675,-22.29131 8.5,-41.01804 8.5,-41.61496 0,-0.59693 -3.87816,-8.28177 -8.61813,-17.07742 -4.73997,-8.79565 -8.45247,-16.1262 -8.25,-16.29012 0.20247,-0.16391 8.35563,-5.13336 18.11813,-11.04322 l 17.75,-10.74519 17.75,10.74519 c 9.7625,5.90986 17.91566,10.87931 18.11813,11.04322 0.20247,0.16392 -3.51003,7.49447 -8.25,16.29012 C 272.87816,256.69067 269,264.37551 269,264.97244 c 0,0.59692 3.825,19.32365 8.5,41.61496 4.675,22.2913 8.5,40.7283 8.5,40.97112 0,0.24281 -16.2,0.44148 -36,0.44148 -19.8,0 -36,-0.19867 -36,-0.44148 z"
       id="path3059"
       inkscape:connector-curvature="0" />
    <path
       style="fill:#6f99b1"
       d="M 125,337.51247 125,273.02495 88.936548,272.76247 52.873097,272.5 94.686548,230.46896 C 160.11362,164.70141 196.24493,133.30595 238.42618,105.56979 L 250,97.959457 l 11.57382,7.610333 c 42.18125,27.73616 78.31256,59.13162 143.73963,124.89917 L 447.1269,272.5 411.06345,272.76247 375,273.02495 l 0,64.48752 0,64.48753 -125,0 -125,0 0,-64.48753 z M 354.12853,370.25 c 0.0707,-9.7625 0.0208,-38.78092 -0.11077,-64.48539 l -0.23929,-46.73539 30.50232,-0.26461 L 414.7831,258.5 383.64155,231.2948 C 326.2146,181.12673 297.06777,158.9443 261.75,138.52825 l -11.75,-6.7923 -11.75,6.7923 C 202.93223,158.9443 173.7854,181.12673 116.35845,231.2948 L 85.216903,258.5 l 30.552667,0.26468 30.55267,0.26469 -0.69578,63.78398 c -0.38268,35.0812 -0.38019,64.09959 0.006,64.48532 C 146.01773,387.6844 193.05833,388 250.16667,388 L 354,388 l 0.12853,-17.75 z m -139.78196,-24.5 c 1.76532,-7.0501 16.65099,-79.09508 16.63875,-80.52965 -0.008,-0.94619 -3.80003,-8.69535 -8.42656,-17.22035 -6.38118,-11.75817 -8.12784,-15.77081 -7.23531,-16.62178 0.6471,-0.61698 8.71405,-5.69704 17.92655,-11.28903 l 16.75,-10.16726 16.75,10.16726 c 9.2125,5.59199 17.27806,10.67205 17.92346,11.28903 0.88891,0.84976 -0.86842,4.88033 -7.24712,16.62178 -4.63132,8.525 -8.42188,16.27416 -8.42346,17.22035 -0.002,1.44258 14.925,73.63837 16.65055,80.52965 L 286.21682,348 250,348 l -36.21682,0 0.56339,-2.25 z"
       id="path3057"
       inkscape:connector-curvature="0" />
    <path
       style="fill:#3c7089"
       d="m 125,337.5 0,-64.5 -36.24537,0 -36.24537,0 40.49537,-40.57004 C 149.40512,175.92548 174.17593,153.28095 206.49894,128.67782 225.60878,114.13209 247.78904,99 250,99 c 2.21096,0 24.39122,15.13209 43.50106,29.67782 32.32301,24.60313 57.09382,47.24766 113.49431,103.75214 L 447.49074,273 411.24537,273 375,273 l 0,64.5 0,64.5 -125,0 -125,0 0,-64.5 z m 230,-13.98534 0,-64.48533 30.0687,-0.26467 L 415.13741,258.5 385.40645,232.51042 C 337.59564,190.71618 314.91465,172.60979 287.15486,154.07548 273.69562,145.08918 251.66544,132 250,132 c -1.66544,0 -23.69562,13.08918 -37.15486,22.07548 -27.75979,18.53431 -50.44078,36.6407 -98.25159,78.43494 L 84.862595,258.5 114.9313,258.76466 145,259.02933 l 0,64.48533 0,64.48534 105,0 105,0 0,-64.48534 z m -140.4144,22.00029 c 0.34304,-1.36678 4.34234,-20.1524 8.88734,-41.74582 l 8.26362,-39.26075 -8.77209,-16.23865 -8.7721,-16.23864 12.65382,-7.70464 c 6.95959,-4.23756 15.01631,-9.18896 17.90381,-11.00313 l 5.25,-3.29848 5.25,3.29848 c 2.8875,1.81417 10.94794,6.76786 17.91209,11.0082 l 12.66208,7.70972 -8.79855,16.22938 -8.79856,16.22938 4.44704,21 c 2.44587,11.55 6.39372,30.3375 8.77299,41.75 l 4.32596,20.75 -35.90558,0 -35.90557,0 0.6237,-2.48505 z"
       id="path3055"
       inkscape:connector-curvature="0" />
    <path
       style="fill:#155472"
       d="M 125,337 125,272 89.25,271.9722 53.5,271.9445 98,227.71984 C 154.60869,171.4614 178.09436,150.19765 210.5,125.86314 226.11729,114.13559 248.3729,99 250,99 c 1.6271,0 23.88271,15.13559 39.5,26.86314 32.40564,24.33451 55.89131,45.59826 112.5,101.8567 l 44.5,44.22466 -35.75,0.0277 L 375,272 l 0,65 0,65 -125,0 -125,0 0,-65 z m 230,-13.48534 0,-64.48533 30.2367,-0.26467 L 415.47341,258.5 387.4867,233.98731 C 326.52538,180.59317 299.36569,159.82147 262.25,138.20644 l -12.25,-7.13403 -12.25,7.13403 c -37.11569,21.61503 -64.27538,42.38673 -125.2367,95.78087 L 84.526594,258.5 114.7633,258.76466 145,259.02933 l 0,64.48533 0,64.48534 105,0 105,0 0,-64.48534 z m -140,22.98969 c 0,-0.82261 3.81235,-19.59788 8.47189,-41.72282 l 8.47189,-40.22718 -8.47189,-15.72073 c -4.65954,-8.64641 -8.4607,-16.08363 -8.44703,-16.52718 C 215.06163,231.11331 248.03115,211.5 250,211.5 c 1.96885,0 34.93837,19.61331 34.97514,20.80644 0.0137,0.44355 -3.78749,7.88077 -8.44703,16.52718 l -8.47189,15.72073 8.47189,40.22718 C 281.18765,326.90647 285,345.68174 285,346.50435 285,347.80339 280.39919,348 250,348 c -30.39919,0 -35,-0.19661 -35,-1.49565 z"
       id="path3053"
       inkscape:connector-curvature="0" />
    <path
       style="fill:#153a4f"
       d="m 214.99648,346.75 c -0.002,-0.6875 3.83895,-19.48329 8.5353,-41.76843 l 8.53881,-40.51843 -8.58277,-15.89838 c -6.97221,-12.91504 -8.3393,-16.13063 -7.28529,-17.13604 C 217.82831,229.87789 249.06007,211 250,211 c 0.93993,0 32.17169,18.87789 33.79747,20.42872 1.05401,1.00541 -0.31308,4.221 -7.28529,17.13604 l -8.58277,15.89838 8.53881,40.51843 c 4.69635,22.28514 8.53723,41.08093 8.5353,41.76843 -0.003,0.97612 -7.67206,1.25 -35.00352,1.25 -27.33146,0 -35.00077,-0.27388 -35.00352,-1.25 z"
       id="path3051"
       inkscape:connector-curvature="0" />
  </g>
</svg>
